PathFileType	4	(X/Y/Z)	D:\TRACE\spot_10-12-23\spot_arm_body_motion_3_10-v60.trc
DataRate	CameraRate	NumFrames	NumMarkers	Units	OrigDataRate	OrigDataStartFrame	OrigNumFrames
100.00	100.00	      21	9	mm	100.00	2626	      7000
Frame#	Time	front left toe			Front right toe			aft left toe			aft right toe			Arm			FL body			FR body			AL Body			AR Body			
		X1	Y1	Z1	X2	Y2	Z2	X3	Y3	Z3	X4	Y4	Z4	X5	Y5	Z5	X6	Y6	Z6	X7	Y7	Z7	X8	Y8	Z8	X9	Y9	Z9	

2626	26.250	-191.98077	88.72192	-469.62076	230.11009	5.43971	-460.97803	-176.31648	19.30726	140.27513	210.41165	17.92016	123.09683	63.11727	787.84515	-762.57318	-56.07040	579.69495	-487.95239	96.43867	585.81482	-485.33105	-78.43293	558.85944	395.92355	72.65070	558.45465	401.32004	
2627	26.260	-191.49661	77.99204	-464.94250	230.06563	5.56195	-460.89661	-176.50447	19.12868	140.18510	210.44110	17.96475	123.04906	62.99230	788.67474	-762.54156	-57.14775	578.93494	-488.48853	94.95595	585.29102	-485.66232	-79.42964	558.63580	395.34811	72.01492	558.14349	400.89078	
2628	26.270	-193.15944	67.78720	-458.42999	230.27805	5.87752	-460.76663	-176.66763	18.97960	140.16409	210.38902	18.00175	123.00854	62.75378	789.34021	-762.22583	-58.55065	578.26642	-489.03381	93.46745	584.71783	-486.42993	-79.68653	558.46198	394.60345	70.50784	558.48383	400.05499	
2629	26.280	-195.18687	56.50344	-451.96246	229.80989	5.99552	-460.88123	-176.78543	18.87378	140.20271	210.32758	18.05145	122.99003	62.66143	790.20850	-761.88409	-59.89142	577.65503	-489.52399	92.29465	584.24493	-487.11298	-80.70435	558.53729	394.45633	69.72956	558.40564	399.53830	
2630	26.290	-197.63495	47.21648	-448.91681	229.52696	6.39134	-460.98660	-176.88049	18.81690	140.25478	210.26376	18.11874	122.96485	62.55662	791.02637	-761.30762	-61.64539	577.03400	-490.05624	90.92901	583.61786	-487.45728	-81.61306	558.66803	393.85181	68.18395	558.67242	399.08246	
2631	26.300	-198.75351	36.74482	-448.47415	229.19914	6.99753	-461.00909	-176.86726	18.88074	140.36107	210.25412	18.08445	123.02121	62.50091	791.42700	-760.83502	-63.22268	576.66461	-490.24048	88.84187	583.39661	-488.14581	-82.92155	558.94305	393.38275	67.12739	558.79230	398.73734	
2632	26.310	-200.41223	27.37118	-449.61929	228.79300	7.18508	-461.09866	-176.86757	18.86799	140.41779	210.27867	17.99117	123.13259	62.32347	791.77472	-760.21826	-65.12967	576.48877	-490.69720	87.14158	583.30432	-488.55331	-84.35018	558.76886	393.11124	66.17676	558.69904	398.49466	
2633	26.320	-201.84105	17.99904	-451.09805	228.50685	7.52548	-461.03506	-177.14284	18.85335	140.46591	210.22296	18.00457	123.10437	62.04385	792.00195	-759.75336	-66.91020	576.70825	-491.05524	85.34210	583.45410	-488.82846	-85.68232	558.63623	392.88263	64.39418	558.79181	397.84561	
2634	26.330	-202.21358	8.13226	-451.57413	228.16426	7.72452	-460.92896	-177.47935	18.74183	140.61813	210.15700	17.95797	123.17788	61.65513	792.24811	-759.38879	-68.73823	576.64978	-491.50861	83.24877	583.63049	-489.03369	-87.37511	558.34888	392.51187	62.62918	558.51178	397.50345	
2635	26.340	-203.57887	5.68661	-454.60898	227.96037	7.93030	-460.85330	-177.59023	18.55635	140.74031	209.96432	18.04878	123.21729	61.54567	792.36237	-759.02441	-69.93151	576.87903	-491.80621	81.65240	583.74585	-489.50729	-89.27077	557.84290	392.21863	60.49673	558.41333	397.04993	
2636	26.350	-205.26898	6.01155	-452.22748	226.95781	8.79824	-461.05075	-177.83182	18.13008	141.07846	209.87228	17.79046	123.63541	61.47575	792.44012	-758.61823	-72.22240	578.02466	-492.16013	79.77280	585.05719	-490.01794	-91.60912	557.65387	391.48886	58.56129	557.73175	396.85043	
2637	26.360	-205.50723	6.55615	-451.64575	226.78203	10.31625	-460.57596	-179.05969	17.12279	140.67676	208.72020	18.66530	122.87254	60.95339	792.68951	-758.17938	-74.43414	579.55560	-492.67987	77.88438	585.85046	-490.14114	-93.35777	557.74786	391.23386	56.95094	557.49274	396.24097	
2638	26.370	-205.19682	5.84197	-452.15643	226.18010	10.62411	-460.97318	-179.41478	16.82956	141.26244	207.36531	19.73091	123.06176	60.53082	793.18726	-757.45282	-75.93534	580.71008	-492.93274	76.14896	586.45752	-490.95395	-95.09203	558.30627	390.70969	55.10452	557.44958	395.96057	
2639	26.380	-205.91833	6.64633	-451.79416	226.09407	10.57741	-460.44275	-179.61368	16.85491	140.70297	207.22632	19.70963	123.43623	60.56018	793.34155	-757.13336	-77.53592	581.75763	-493.54630	74.68512	587.01563	-490.93475	-97.25054	559.21967	390.20209	52.79975	557.86639	395.23874	
2640	26.390	-205.45709	5.92132	-452.33759	226.39238	10.64495	-460.52399	-179.76575	16.78222	140.66476	207.07619	19.46313	123.36416	60.66361	793.25531	-757.03143	-78.99966	582.89777	-494.17679	73.28729	587.83966	-491.77933	-99.12664	559.95886	389.66150	50.85414	558.30981	394.84918	
2641	26.400	-205.65799	6.23713	-452.22687	226.06064	10.61854	-460.71872	-180.01175	16.52627	140.64088	206.95856	19.64573	123.30952	60.75489	793.04474	-756.96069	-80.04907	583.96362	-494.70770	72.36812	588.16406	-492.01889	-100.64483	560.75177	388.79019	49.38905	558.69958	394.23346	
2642	26.410	-205.67155	6.29354	-452.33646	225.69901	10.78040	-460.79028	-180.20650	16.26658	140.54163	206.61896	19.39840	123.03519	60.72387	792.95947	-757.29443	-81.26992	584.95367	-495.52164	71.11227	589.08215	-492.93350	-102.00745	561.42468	388.20993	47.98827	559.42725	393.61478	
2643	26.420	-205.80711	6.28849	-452.33524	225.61688	11.05335	-460.79016	-180.37973	16.21111	140.44029	206.47685	19.56616	123.12705	60.71751	793.15210	-757.38452	-82.06332	585.48193	-496.08298	70.22955	589.78552	-493.27802	-103.35171	562.16797	387.48465	46.59493	560.06000	392.87482	
2644	26.430	-205.59521	5.93954	-452.36041	225.32152	11.17627	-460.86935	-180.54657	16.16969	140.28613	206.41109	19.43470	123.14925	60.49315	793.27924	-757.44794	-83.17386	586.30042	-496.92352	69.05376	590.63342	-494.13077	-104.52837	562.74640	386.79874	45.54819	560.70270	392.31433	
2645	26.440	-206.38882	6.31998	-452.48621	225.07733	11.26278	-460.90591	-180.77299	16.13497	140.22423	206.13544	19.27753	122.95508	59.87992	793.42755	-758.03174	-83.96093	586.66229	-497.57376	68.28369	591.08960	-495.15790	-105.52806	563.38214	386.06683	44.36247	561.33386	391.23505	
2646	26.450	-206.62827	6.34420	-452.48303	224.95689	11.33823	-460.83932	-180.98395	16.15009	140.22844	205.84172	19.27261	122.89809	59.70572	793.90088	-758.88458	-84.75595	587.04852	-498.50150	67.73843	591.28693	-495.57526	-106.56439	564.22430	385.19727	43.61317	562.16351	390.73196	
